<svg xmlns="http://www.w3.org/2000/svg" width="1200" height="630" viewBox="0 0 1200 630" role="img" aria-label="AtlasBrief">
  <defs>
    <linearGradient id="bg" x1="0" y1="0" x2="1" y2="1">
      <stop offset="0%" stop-color="#edf7ff" />
      <stop offset="55%" stop-color="#fff8ef" />
      <stop offset="100%" stop-color="#e4f1ff" />
    </linearGradient>
    <linearGradient id="trail" x1="0" y1="0" x2="1" y2="0">
      <stop offset="0%" stop-color="#60a5fa" stop-opacity="0.2" />
      <stop offset="100%" stop-color="#d4a853" stop-opacity="0.9" />
    </linearGradient>
  </defs>
  <rect width="1200" height="630" fill="url(#bg)" />
  <rect x="62" y="64" width="1076" height="502" rx="36" fill="#ffffff" fill-opacity="0.72" stroke="#ffffff" stroke-opacity="0.8" />
  <path d="M140 438C300 260 465 216 650 260S946 314 1060 174" fill="none" stroke="url(#trail)" stroke-width="8" stroke-linecap="round" stroke-dasharray="12 12" />
  <circle cx="232" cy="356" r="6" fill="#ffffff" />
  <circle cx="436" cy="272" r="6" fill="#ffffff" />
  <circle cx="828" cy="308" r="6" fill="#ffffff" />
  <g transform="translate(922 152) rotate(18)">
    <rect x="-30" y="-30" width="60" height="60" rx="18" fill="#ffffff" stroke="#dbeafe" />
    <path d="M-14 8c11-2 18-7 28-17l2 2C7 4 0 10-14 12z" fill="#60a5fa" />
  </g>
  <text x="140" y="220" fill="#1e2d4a" font-family="Manrope, Arial, sans-serif" font-size="62" font-weight="700">
    AtlasBrief
  </text>
  <text x="140" y="288" fill="#334155" font-family="Manrope, Arial, sans-serif" font-size="34" font-weight="500">
    Know the country before you land.
  </text>
  <text x="140" y="344" fill="#475569" font-family="Manrope, Arial, sans-serif" font-size="26" font-weight="500">
    Travel-readiness and destination intelligence before booking.
  </text>
</svg>
